<?xml version="1.0" encoding="UTF-8"?>
<svg width="64px" height="64px" viewBox="0 0 64 64" xmlns="http://www.w3.org/2000/svg" xmlns:xlink="http://www.w3.org/1999/xlink" version="1.1">
 <!-- Generated by Pixelmator Pro 1.6.1 -->
 <defs>
  <linearGradient id="linear-gradient" gradientUnits="userSpaceOnUse" x1="48.399" y1="0.949" x2="48.572" y2="66.554">
   <stop offset="0" stop-color="#ec150e" stop-opacity="1"/>
   <stop offset="1" stop-color="#1a2a36" stop-opacity="1"/>
  </linearGradient>
 </defs>
 <path id="Rounded-Rectangle" d="M32 64 L64 64 64 0 32 0 Z" fill-opacity="1" fill="url(#linear-gradient)" stroke="none"/>
 <defs>
  <linearGradient id="linear-gradient-1" gradientUnits="userSpaceOnUse" x1="16.399" y1="0.949" x2="16.572" y2="66.554">
   <stop offset="0" stop-color="#2d43ec" stop-opacity="1"/>
   <stop offset="1" stop-color="#1a2a36" stop-opacity="1"/>
  </linearGradient>
 </defs>
 <path id="Rounded-Rectangle-1" d="M0 64 L32 64 32 0 0 0 Z" fill-opacity="1" fill="url(#linear-gradient-1)" stroke="none"/>
 <path id="C-E" d="M56.044 36.857 L56.044 40 41 40 41 17.46 55.766 17.46 55.766 20.603 44.46 20.603 44.46 27.016 54.252 27.016 54.252 29.968 44.46 29.968 44.46 36.857 Z M4.932 28.308 C4.932 26.945 5.166 25.588 5.634 24.235 6.102 22.883 6.788 21.669 7.693 20.594 8.598 19.518 9.702 18.65 11.003 17.99 12.305 17.33 13.78 17 15.427 17 17.4 17 19.088 17.458 20.491 18.374 21.895 19.289 22.953 20.482 23.664 21.951 L20.98 23.836 C20.675 23.155 20.308 22.58 19.881 22.111 19.454 21.643 18.986 21.27 18.478 20.993 17.969 20.716 17.441 20.519 16.891 20.402 16.342 20.285 15.813 20.226 15.305 20.226 14.166 20.226 13.169 20.466 12.315 20.945 11.461 21.424 10.744 22.058 10.164 22.846 9.585 23.634 9.147 24.518 8.852 25.497 8.557 26.477 8.41 27.456 8.41 28.436 8.41 29.544 8.583 30.598 8.929 31.599 9.274 32.6 9.757 33.483 10.378 34.25 10.998 35.017 11.735 35.629 12.59 36.087 13.444 36.545 14.38 36.774 15.397 36.774 15.925 36.774 16.469 36.704 17.029 36.566 17.588 36.428 18.127 36.204 18.646 35.895 19.164 35.586 19.642 35.198 20.08 34.729 20.517 34.261 20.878 33.696 21.163 33.036 L24 34.729 C23.654 35.581 23.166 36.332 22.536 36.981 21.905 37.631 21.193 38.179 20.4 38.626 19.607 39.074 18.768 39.414 17.883 39.649 16.998 39.883 16.129 40 15.274 40 13.749 40 12.356 39.659 11.095 38.978 9.834 38.296 8.746 37.407 7.83 36.31 6.915 35.214 6.203 33.968 5.695 32.573 5.186 31.178 4.932 29.756 4.932 28.308 Z" fill="#ffffff" fill-opacity="1" stroke="none"/>
</svg>
